<svg width="80" height="94" viewBox="0 0 80 94" fill="none" xmlns="http://www.w3.org/2000/svg">
<g filter="url(#filter0_d_2_200)">
<path d="M48.4725 33.1262L45.6893 36.4176H49.9997H59.331C59.7489 36.4176 59.88 36.5244 59.885 36.5286L59.8851 36.5286C59.8923 36.5344 59.897 36.5395 59.9038 36.5519C59.9117 36.5665 59.9293 36.6055 59.9402 36.6802C59.9897 37.0193 59.8375 37.8717 58.9029 38.8133L19.295 77.2993C19.2712 77.3213 19.2478 77.3427 19.2246 77.3634L26.8373 54.3484L26.8401 54.3398L26.8429 54.3312C27.0048 53.8262 27.2531 53.1381 27.4984 52.5433L28.6376 49.7808H25.6494H12.8522C11.6008 49.7808 10.8329 49.267 10.4252 48.617C9.99694 47.9342 9.78883 46.8071 10.3001 45.3193L10.3041 45.3076L10.308 45.2959L22.0388 9.73814L22.0414 9.73027L22.0439 9.72238C22.5231 8.22856 23.6064 6.76981 25.0092 5.68122C26.4207 4.58601 27.9785 4 29.2931 4H66.8849C68.557 4 69.4479 4.81618 69.8022 5.67328C70.1811 6.58995 70.0388 7.75199 69.1763 8.64838L69.1317 8.69467L69.0902 8.74373L48.4725 33.1262Z" stroke="#FFCE21" stroke-width="4" shape-rendering="crispEdges"/>
</g>
<defs>
<filter id="filter0_d_2_200" x="0" y="0" width="80" height="94" filterUnits="userSpaceOnUse" color-interpolation-filters="sRGB">
<feFlood flood-opacity="0" result="BackgroundImageFix"/>
<feColorMatrix in="SourceAlpha" type="matrix" values="0 0 0 0 0 0 0 0 0 0 0 0 0 0 0 0 0 0 127 0" result="hardAlpha"/>
<feOffset dy="6"/>
<feGaussianBlur stdDeviation="4"/>
<feComposite in2="hardAlpha" operator="out"/>
<feColorMatrix type="matrix" values="0 0 0 0 0.0250521 0 0 0 0 0.147537 0 0 0 0 0.4625 0 0 0 0.3 0"/>
<feBlend mode="normal" in2="BackgroundImageFix" result="effect1_dropShadow_2_200"/>
<feBlend mode="normal" in="SourceGraphic" in2="effect1_dropShadow_2_200" result="shape"/>
</filter>
</defs>
</svg>
