<svg width="88" height="94" viewBox="0 0 88 94" fill="none" xmlns="http://www.w3.org/2000/svg">
<g filter="url(#filter0_d_2_198)">
<path d="M56.4725 33.1262L53.6893 36.4176H57.9997H67.331C67.7489 36.4176 67.88 36.5244 67.885 36.5286L67.8851 36.5286C67.8923 36.5344 67.897 36.5395 67.9038 36.5519C67.9117 36.5665 67.9293 36.6055 67.9402 36.6802C67.9897 37.0193 67.8375 37.8717 66.9029 38.8133L27.295 77.2993C27.2712 77.3213 27.2478 77.3427 27.2246 77.3634L34.8373 54.3484L34.8401 54.3398L34.8429 54.3312C35.0048 53.8262 35.2531 53.1381 35.4984 52.5433L36.6376 49.7808H33.6494H20.8522C19.6008 49.7808 18.8329 49.267 18.4252 48.617C17.9969 47.9342 17.7888 46.8071 18.3001 45.3193L18.3041 45.3076L18.308 45.2959L30.0388 9.73814L30.0414 9.73027L30.0439 9.72238C30.5231 8.22856 31.6064 6.76981 33.0092 5.68122C34.4207 4.58601 35.9785 4 37.2931 4H74.8849C76.557 4 77.4479 4.81618 77.8022 5.67328C78.1811 6.58995 78.0388 7.75199 77.1763 8.64838L77.1317 8.69467L77.0902 8.74373L56.4725 33.1262Z" stroke="#FFCE21" stroke-width="4" shape-rendering="crispEdges"/>
</g>
<defs>
<filter id="filter0_d_2_198" x="8" y="0" width="80" height="94" filterUnits="userSpaceOnUse" color-interpolation-filters="sRGB">
<feFlood flood-opacity="0" result="BackgroundImageFix"/>
<feColorMatrix in="SourceAlpha" type="matrix" values="0 0 0 0 0 0 0 0 0 0 0 0 0 0 0 0 0 0 127 0" result="hardAlpha"/>
<feOffset dy="6"/>
<feGaussianBlur stdDeviation="4"/>
<feComposite in2="hardAlpha" operator="out"/>
<feColorMatrix type="matrix" values="0 0 0 0 0.0250521 0 0 0 0 0.147537 0 0 0 0 0.4625 0 0 0 0.3 0"/>
<feBlend mode="normal" in2="BackgroundImageFix" result="effect1_dropShadow_2_198"/>
<feBlend mode="normal" in="SourceGraphic" in2="effect1_dropShadow_2_198" result="shape"/>
</filter>
</defs>
</svg>
